<svg xmlns="http://www.w3.org/2000/svg" xmlns:svg="http://www.w3.org/2000/svg" id="svg2" x="0" y="0" enable-background="new 0 0 1052.4 744.1" version="1.1" viewBox="0 0 1052.4 744.1" xml:space="preserve"><metadata id="metadata187"/><style id="style2" type="text/css">.st0{fill:#59798f}.st1{fill:#a6ca61}</style><path id="path37_1_" d="M503,357c4.8,0,8.8,3.9,8.8,8.8c0,4.8-3.9,8.8-8.8,8.8c-4.8,0-8.8-3.9-8.8-8.8C494.3,361,498.2,357,503,357" class="st0"/><path id="path39_1_" d="M516.3,406.3c-33.1,0.1-61.2-32.6-56.1-65.4c3.4-31.8,36.4-56.3,67.9-49.9c30.9,5.1,53.9,38,46.7,68.9 C569.7,386.6,543.8,407.7,516.3,406.3z M518,391.7c27.4,0.8,49.8-28.4,42-54.6c-6.1-23.8-34.3-39.2-57.6-29.4 c-23.2,8.5-35.3,38.6-23,60.4C486.5,382.3,502,391.9,518,391.7z" class="st1"/><g id="g11_1_" display="inline" transform="matrix(1.25,0,0,-1.25,0,990)"><path id="path41_1_" fill="#59798f" d="m 259.4,482 h -48.5 c -8.6,0 -15.7,5.3 -15.7,11.8 v 26.7 c 0,6.5 7,11.8 15.7,11.8 h 32.8 c 8.6,0 15.7,-5.3 15.7,-11.8 z m -15.7,60.3 h -32.8 c -14.1,0 -25.7,-9.8 -25.7,-21.8 v -26.7 c 0,-12 11.5,-21.8 25.7,-21.8 h 48.5 v -8.4 c 0,-6.5 -7,-11.8 -15.7,-11.8 h -49.5 -3.1 v -0.1 c -0.1,0 -0.3,0 -0.4,0 -2.8,0 -5,-2.2 -5,-5 0,-2.8 2.2,-5 5,-5 0.1,0 0.3,0 0.4,0 v -0.1 h 52.6 c 14.2,0 25.7,9.8 25.7,21.8 v 56.9 c 0,12.2 -11.6,22 -25.7,22" class="st0"/><path id="path43_1_" fill="#59798f" d="m 302.6,532.3 h 32.8 c 8.6,0 15.7,-5.3 15.7,-11.8 v -8.4 H 287 v 8.4 c 0,6.5 7,11.8 15.6,11.8 z m 58.5,-30.2 v 18.4 c 0,12 -11.5,21.8 -25.7,21.8 h -32.8 c -14.2,0 -25.7,-9.8 -25.7,-21.8 v -26.7 c 0,-12 11.5,-21.8 25.7,-21.8 h 53.5 v 0 c 2.8,0 5,2.2 5,5 0,2.8 -2.2,5 -5,5 h -53.5 c -8.6,0 -15.7,5.3 -15.7,11.8 v 8.3 h 74.2" class="st0"/><path id="path45_1_" fill="#59798f" d="m 477.3,520.5 c 0,6.5 7,11.8 15.7,11.8 h 32.8 c 8.6,0 15.7,-5.3 15.7,-11.8 v -26.7 c 0,-6.5 -7,-11.8 -15.7,-11.8 h -48.5 z m 48.5,21.8 H 493 c -14.2,0 -25.7,-9.8 -25.7,-21.8 v -72.8 c 0,-2.8 2.2,-5 5,-5 2.8,0 5,2.2 5,5 V 472 h 48.5 c 14.2,0 25.7,9.8 25.7,21.8 v 26.7 c -0.1,12 -11.6,21.8 -25.7,21.8" class="st0"/><path id="path47_1_" fill="#59798f" d="m 623.2,512.4 c -0.1,0 -0.2,0 -0.3,0 h -0.4 c -0.2,0 -0.3,0 -0.6,0 H 595 v 0 h -17.1 c -5.5,0 -10,4.5 -10,10 0,5.4 4.4,9.9 9.9,10 H 637 c 2.9,0 5.2,2.2 5.2,5 0,2.8 -2.3,5 -5.2,5 h -59.1 c -11,0 -20,-9 -20,-20 0,-11 8.9,-19.9 19.8,-20 h 26.4 v 0 h 18.3 c 5.5,-0.2 9.8,-4.6 9.8,-10.1 0,-5.6 -4.6,-10.2 -10.3,-10.2 v 0 h -59 c -2.8,0 -5,-2.2 -5,-5 0,-2.8 2.2,-5 5,-5 h 58.2 c 0.1,0 0.2,0 0.2,0 h 0.3 c 0.2,0 0.3,0 0.5,0 11.1,0 20.2,9 20.2,20.2 0,10.6 -8.4,19.5 -19.1,20.1" class="st0"/></g></svg>