<?xml version="1.0" encoding="UTF-8" standalone="no"?>
<!-- Generator: Adobe Illustrator 23.0.2, SVG Export Plug-In . SVG Version: 6.00 Build 0)  -->

<svg
   xmlns:dc="http://purl.org/dc/elements/1.1/"
   xmlns:cc="http://creativecommons.org/ns#"
   xmlns:rdf="http://www.w3.org/1999/02/22-rdf-syntax-ns#"
   xmlns:svg="http://www.w3.org/2000/svg"
   xmlns="http://www.w3.org/2000/svg"
   xmlns:sodipodi="http://sodipodi.sourceforge.net/DTD/sodipodi-0.dtd"
   xmlns:inkscape="http://www.inkscape.org/namespaces/inkscape"
   version="1.1"
   id="svg2"
   x="0px"
   y="0px"
   viewBox="0 0 1052.4 744.1"
   style="enable-background:new 0 0 1052.4 744.1;"
   xml:space="preserve"
   sodipodi:docname="geOps_logo.svg"
   inkscape:version="0.92.2 (5c3e80d, 2017-08-06)"
   inkscape:export-filename="C:\Users\ulim\Downloads\geOps_logo.png"
   inkscape:export-xdpi="168.02"
   inkscape:export-ydpi="168.02"><metadata
     id="metadata187"><rdf:RDF><cc:Work
         rdf:about=""><dc:format>image/svg+xml</dc:format><dc:type
           rdf:resource="http://purl.org/dc/dcmitype/StillImage" /><dc:title /></cc:Work></rdf:RDF></metadata><style
     type="text/css"
     id="style2">
	.st0{fill:#59798F;}
	.st1{fill:#A6CA61;}
	.st2{display:none;fill:none;stroke:#59798F;stroke-width:0.5;stroke-miterlimit:10;}
	.st3{enable-background:new    ;}
	.st4{fill:#61849C;}
	.st5{fill:none;stroke:#59798F;stroke-width:0.5;stroke-miterlimit:10;}
	.st6{display:none;fill:#59798F;stroke:#59798F;stroke-width:0.5;stroke-miterlimit:10;}
</style><defs
     id="defs13"><inkscape:perspective
       id="perspective9"
       inkscape:persp3d-origin="372.04724 : 350.78739 : 1"
       inkscape:vp_x="0 : 526.18109 : 1"
       inkscape:vp_y="0 : 1000 : 0"
       inkscape:vp_z="744.09448 : 526.18109 : 1"
       sodipodi:type="inkscape:persp3d" /><inkscape:perspective
       id="perspective2441"
       inkscape:persp3d-origin="372.04724 : 350.78739 : 1"
       inkscape:vp_x="0 : 526.18109 : 1"
       inkscape:vp_y="0 : 1000 : 0"
       inkscape:vp_z="744.09448 : 526.18109 : 1"
       sodipodi:type="inkscape:persp3d" /><inkscape:perspective
       id="perspective2406"
       inkscape:persp3d-origin="372.04724 : 350.78739 : 1"
       inkscape:vp_x="0 : 526.18109 : 1"
       inkscape:vp_y="0 : 1000 : 0"
       inkscape:vp_z="744.09448 : 526.18109 : 1"
       sodipodi:type="inkscape:persp3d" /><inkscape:perspective
       id="perspective2393"
       inkscape:persp3d-origin="372.04724 : 350.78739 : 1"
       inkscape:vp_x="0 : 526.18109 : 1"
       inkscape:vp_y="0 : 1000 : 0"
       inkscape:vp_z="744.09448 : 526.18109 : 1"
       sodipodi:type="inkscape:persp3d" /><inkscape:perspective
       id="perspective2554"
       inkscape:persp3d-origin="372.04724 : 350.78739 : 1"
       inkscape:vp_x="0 : 526.18109 : 1"
       inkscape:vp_y="0 : 1000 : 0"
       inkscape:vp_z="744.09448 : 526.18109 : 1"
       sodipodi:type="inkscape:persp3d" /><inkscape:perspective
       id="perspective3698"
       inkscape:persp3d-origin="0.5 : 0.33333333 : 1"
       inkscape:vp_x="0 : 0.5 : 1"
       inkscape:vp_y="0 : 1000 : 0"
       inkscape:vp_z="1 : 0.5 : 1"
       sodipodi:type="inkscape:persp3d" /><inkscape:perspective
       id="perspective3780"
       inkscape:persp3d-origin="0.5 : 0.33333333 : 1"
       inkscape:vp_x="0 : 0.5 : 1"
       inkscape:vp_y="0 : 1000 : 0"
       inkscape:vp_z="1 : 0.5 : 1"
       sodipodi:type="inkscape:persp3d" /><inkscape:perspective
       id="perspective3780-2"
       inkscape:persp3d-origin="0.5 : 0.33333333 : 1"
       inkscape:vp_x="0 : 0.5 : 1"
       inkscape:vp_y="0 : 1000 : 0"
       inkscape:vp_z="1 : 0.5 : 1"
       sodipodi:type="inkscape:persp3d" /><inkscape:perspective
       id="perspective3826"
       inkscape:persp3d-origin="0.5 : 0.33333333 : 1"
       inkscape:vp_x="0 : 0.5 : 1"
       inkscape:vp_y="0 : 1000 : 0"
       inkscape:vp_z="1 : 0.5 : 1"
       sodipodi:type="inkscape:persp3d" /></defs><sodipodi:namedview
     bordercolor="#666666"
     borderopacity="1.0"
     gridtolerance="10.0"
     guidetolerance="10.0"
     id="base"
     inkscape:current-layer="layer2"
     inkscape:cx="261.39379"
     inkscape:cy="355.3679"
     inkscape:pageopacity="0"
     inkscape:pageshadow="2"
     inkscape:window-height="1046"
     inkscape:window-maximized="1"
     inkscape:window-width="1765"
     inkscape:window-x="144"
     inkscape:window-y="-11"
     inkscape:zoom="0.8203125"
     objecttolerance="10.0"
     pagecolor="#b4b4b4"
     showgrid="false" /><path
     id="path37_1_"
     inkscape:connector-curvature="0"
     inkscape:export-filename="/tmp/head_geops.png"
     inkscape:export-xdpi="61.790001"
     inkscape:export-ydpi="61.790001"
     class="st0"
     d="  M503,357c4.8,0,8.8,3.9,8.8,8.8c0,4.8-3.9,8.8-8.8,8.8c-4.8,0-8.8-3.9-8.8-8.8C494.3,361,498.2,357,503,357" /><path
     id="path39_1_"
     inkscape:connector-curvature="0"
     inkscape:export-filename="/tmp/head_geops.png"
     inkscape:export-xdpi="61.790001"
     inkscape:export-ydpi="61.790001"
     class="st1"
     d="  M516.3,406.3c-33.1,0.1-61.2-32.6-56.1-65.4c3.4-31.8,36.4-56.3,67.9-49.9c30.9,5.1,53.9,38,46.7,68.9  C569.7,386.6,543.8,407.7,516.3,406.3z M518,391.7c27.4,0.8,49.8-28.4,42-54.6c-6.1-23.8-34.3-39.2-57.6-29.4  c-23.2,8.5-35.3,38.6-23,60.4C486.5,382.3,502,391.9,518,391.7z" /><g
     id="g11_1_"
     transform="matrix(1.25,0,0,-1.25,0,990)"
     inkscape:groupmode="layer"
     inkscape:label="letters"
     style="display:inline"><path
       id="path41_1_"
       inkscape:connector-curvature="0"
       inkscape:export-filename="c:\temp\geops_logo_large.png"
       inkscape:export-xdpi="53.011284"
       inkscape:export-ydpi="53.011284"
       class="st0"
       d="m 259.4,482 h -48.5 c -8.6,0 -15.7,5.3 -15.7,11.8 v 26.7 c 0,6.5 7,11.8 15.7,11.8 h 32.8 c 8.6,0 15.7,-5.3 15.7,-11.8 z m -15.7,60.3 h -32.8 c -14.1,0 -25.7,-9.8 -25.7,-21.8 v -26.7 c 0,-12 11.5,-21.8 25.7,-21.8 h 48.5 v -8.4 c 0,-6.5 -7,-11.8 -15.7,-11.8 h -49.5 -3.1 v -0.1 c -0.1,0 -0.3,0 -0.4,0 -2.8,0 -5,-2.2 -5,-5 0,-2.8 2.2,-5 5,-5 0.1,0 0.3,0 0.4,0 v -0.1 h 52.6 c 14.2,0 25.7,9.8 25.7,21.8 v 56.9 c 0,12.2 -11.6,22 -25.7,22"
       style="fill:#59798f" /><path
       id="path43_1_"
       inkscape:connector-curvature="0"
       inkscape:export-filename="c:\temp\geops_logo_large.png"
       inkscape:export-xdpi="53.011284"
       inkscape:export-ydpi="53.011284"
       class="st0"
       d="m 302.6,532.3 h 32.8 c 8.6,0 15.7,-5.3 15.7,-11.8 v -8.4 H 287 v 8.4 c 0,6.5 7,11.8 15.6,11.8 z m 58.5,-30.2 v 18.4 c 0,12 -11.5,21.8 -25.7,21.8 h -32.8 c -14.2,0 -25.7,-9.8 -25.7,-21.8 v -26.7 c 0,-12 11.5,-21.8 25.7,-21.8 h 53.5 v 0 c 2.8,0 5,2.2 5,5 0,2.8 -2.2,5 -5,5 h -53.5 c -8.6,0 -15.7,5.3 -15.7,11.8 v 8.3 h 74.2"
       style="fill:#59798f" /><path
       id="path45_1_"
       inkscape:connector-curvature="0"
       inkscape:export-filename="c:\temp\geops_logo_large.png"
       inkscape:export-xdpi="53.011284"
       inkscape:export-ydpi="53.011284"
       class="st0"
       d="m 477.3,520.5 c 0,6.5 7,11.8 15.7,11.8 h 32.8 c 8.6,0 15.7,-5.3 15.7,-11.8 v -26.7 c 0,-6.5 -7,-11.8 -15.7,-11.8 h -48.5 z m 48.5,21.8 H 493 c -14.2,0 -25.7,-9.8 -25.7,-21.8 v -72.8 c 0,-2.8 2.2,-5 5,-5 2.8,0 5,2.2 5,5 V 472 h 48.5 c 14.2,0 25.7,9.8 25.7,21.8 v 26.7 c -0.1,12 -11.6,21.8 -25.7,21.8"
       style="fill:#59798f" /><path
       id="path47_1_"
       inkscape:connector-curvature="0"
       inkscape:export-filename="c:\temp\geops_logo_large.png"
       inkscape:export-xdpi="53.011284"
       inkscape:export-ydpi="53.011284"
       class="st0"
       d="m 623.2,512.4 c -0.1,0 -0.2,0 -0.3,0 h -0.4 c -0.2,0 -0.3,0 -0.6,0 H 595 v 0 h -17.1 c -5.5,0 -10,4.5 -10,10 0,5.4 4.4,9.9 9.9,10 H 637 c 2.9,0 5.2,2.2 5.2,5 0,2.8 -2.3,5 -5.2,5 h -59.1 c -11,0 -20,-9 -20,-20 0,-11 8.9,-19.9 19.8,-20 h 26.4 v 0 h 18.3 c 5.5,-0.2 9.8,-4.6 9.8,-10.1 0,-5.6 -4.6,-10.2 -10.3,-10.2 v 0 h -59 c -2.8,0 -5,-2.2 -5,-5 0,-2.8 2.2,-5 5,-5 h 58.2 c 0.1,0 0.2,0 0.2,0 h 0.3 c 0.2,0 0.3,0 0.5,0 11.1,0 20.2,9 20.2,20.2 0,10.6 -8.4,19.5 -19.1,20.1"
       style="fill:#59798f" /></g><g
     inkscape:groupmode="layer"
     id="layer2"
     inkscape:label="spatialweb"
     style="display:inline" /></svg>