<svg xmlns="http://www.w3.org/2000/svg" viewBox="0 0 42.26 59.55"><g data-name="Ebene 2"><path d="M40.76 29.14H37V15.69a15.69 15.69 0 0 0-31.38 0v13.45H1.5a1.5 1.5 0 0 0-1.5 1.5v21.84a7.08 7.08 0 0 0 7.08 7.07h28.1a7.08 7.08 0 0 0 7.08-7.07V30.64a1.5 1.5 0 0 0-1.5-1.5zM8.58 15.69a12.69 12.69 0 0 1 25.38 0v13.45H8.58zm30.68 36.79a4 4 0 0 1-4.08 4.07H7.08A4 4 0 0 1 3 52.48V32.14h36.26z"/><path d="M24.58 40.56a3.31 3.31 0 1 0-6.62 0 3.24 3.24 0 0 0 1.79 3L18 49.79h6.62l-1.79-6.34a3.21 3.21 0 0 0 1.75-2.89z"/></g></svg>