<?xml version="1.0" encoding="utf-8"?>
<!-- Generator: Adobe Illustrator 23.0.3, SVG Export Plug-In . SVG Version: 6.00 Build 0)  -->
<svg version="1.1" xmlns="http://www.w3.org/2000/svg" xmlns:xlink="http://www.w3.org/1999/xlink" x="0px" y="0px"
	 viewBox="0 0 792 612" style="enable-background:new 0 0 792 612;" xml:space="preserve">
<style type="text/css">
	.st0{display:none;}
	.st1{display:inline;fill:#1D1D1B;stroke:#1D1D1B;stroke-miterlimit:10;}
	.st2{fill:#FFFFFF;}
</style>
<g id="HG_schwarz" class="st0">
	<rect x="110.98" y="7.73" class="st1" width="570.04" height="595.39"/>
</g>
<g id="Element">
	<path class="st2" d="M500.75,248.81c0-57.56-46.66-104.23-104.23-104.23c-57.57,0-104.23,46.67-104.23,104.23c0,1.98,0,5.81,0,5.81
		v214.23l166.97-136.58c2.2-1.66,4.17-3.52,6.23-5.34l1.46-1.3C487.72,306.58,500.75,279.22,500.75,248.81z M396.52,196.32
		c28.98,0,52.48,23.5,52.48,52.49c0,28.98-23.5,52.48-52.48,52.48c-28.99,0-52.49-23.5-52.49-52.48
		C344.04,219.82,367.53,196.32,396.52,196.32z"/>
</g>
</svg>
