<svg xmlns="http://www.w3.org/2000/svg" viewBox="0 0 42.26 59.55"><g id="Ebene_2" data-name="Ebene 2"><g id="Ebene_2-2" data-name="Ebene 2"><path d="M40.76,29.13H8.58V15.69a12.69,12.69,0,0,1,25.38,0v4.16h3V15.69a15.69,15.69,0,0,0-31.38,0V29.13H1.5A1.5,1.5,0,0,0,0,30.63V52.47a7.09,7.09,0,0,0,7.08,7.08h28.1a7.09,7.09,0,0,0,7.08-7.08V30.63A1.5,1.5,0,0,0,40.76,29.13Zm-1.5,23.34a4,4,0,0,1-4.08,4.08H7.08A4,4,0,0,1,3,52.47V32.13H39.26Z"/><path d="M24.57,40.55a3.31,3.31,0,1,0-4.82,3L18,49.78h6.61l-1.79-6.33A3.22,3.22,0,0,0,24.57,40.55Z"/></g></g></svg>