<svg xmlns="http://www.w3.org/2000/svg" xmlns:xlink="http://www.w3.org/1999/xlink" id="Ebene_1" x="0" y="0" enable-background="new 0 0 1190.55 841.89" version="1.1" viewBox="0 0 1190.55 841.89" xml:space="preserve"><style type="text/css">.st0{fill:#1487c9}</style><g><path d="M327.93,322.62h-10.69v-2.89h24.45v2.89H331v30.19h-3.07V322.62z" class="st0"/><path d="M342.62,328.95h2.4l0.36,3.87h0.04c1.65-3.16,4.81-4.14,6.95-4.14c0.58,0,1.07,0.04,1.51,0.09v2.94 c-0.49-0.09-1.02-0.13-1.56-0.13c-3.3,0-6.68,2.18-6.68,6.95v14.29h-3.03V328.95z" class="st0"/><path d="M356.2,340.88c0-7.66,5.25-12.42,10.91-12.42c3.38,0,6.86,1.65,8.77,5.17l0.4-4.68h2.45v23.87h-2.45l-0.4-4.68 c-1.92,3.52-5.39,5.17-8.77,5.17C361.46,353.3,356.2,348.5,356.2,340.88z M375.8,340.84c0-5.61-3.7-9.49-8.28-9.49 c-4.63,0-8.28,3.79-8.28,9.53c0,5.7,3.65,9.53,8.28,9.53C372.1,350.41,375.8,346.54,375.8,340.84z" class="st0"/><path d="M387.82,331.66h-3.52v-2.72h3.47v-4.05c0-4.76,3.3-7.84,7.7-7.84c1.25,0,2.63,0.27,3.74,0.67v2.98 c-0.85-0.36-2.4-0.67-3.56-0.67c-3.12,0-4.85,1.65-4.85,5.39v3.52h7.13v2.72h-7.08v21.15h-3.03V331.66z" class="st0"/><path d="M402.25,320.62c0-1.16,0.85-2,2.05-2c1.25,0,2.09,0.85,2.09,2c0,1.2-0.85,2.05-2.09,2.05 C403.09,322.67,402.25,321.82,402.25,320.62z M402.78,328.95h3.03v23.87h-3.03V328.95z" class="st0"/><path d="M444.1,336.83v15.99h-3.03v-15.63c0-3.7-1.51-5.74-5.03-5.74c-3.47,0-5.52,2.85-5.52,5.88v15.5h-3.03v-15.63 c0-3.7-1.51-5.74-4.99-5.74c-3.61,0-5.52,2.98-5.52,6.1v15.27h-3.03v-23.87h2.32l0.4,3.61h0.09c1.16-2.36,3.43-4.1,6.32-4.1 c3.43,0,5.52,1.51,6.64,4.23c1.34-2.54,3.61-4.23,6.86-4.23C441.79,328.46,444.1,331.93,444.1,336.83z" class="st0"/><path d="M450.25,340.88c0-7.66,5.25-12.42,10.91-12.42c3.38,0,6.86,1.65,8.77,5.17l0.4-4.68h2.45v23.87h-2.45 l-0.4-4.68c-1.91,3.52-5.39,5.17-8.77,5.17C455.5,353.3,450.25,348.5,450.25,340.88z M469.84,340.84c0-5.61-3.7-9.49-8.28-9.49 c-4.63,0-8.28,3.79-8.28,9.53c0,5.7,3.65,9.53,8.28,9.53C466.15,350.41,469.84,346.54,469.84,340.84z" class="st0"/><path d="M498.83,333.31l0.4-4.36h2.4v22.31c0,7.66-5.48,11.4-11.13,11.4c-3.21,0-6.41-1.16-8.86-3.03v-3.56 c2.49,2.32,5.52,3.61,8.86,3.61c4.28,0,8.11-3.03,8.11-7.79v-4.14c-1.87,3.03-5.17,4.72-8.55,4.72c-5.66,0-10.91-4.81-10.91-11.98 c0-7.17,5.25-11.98,10.91-11.98C493.44,328.5,496.92,330.06,498.83,333.31z M482.18,340.52c0,5.21,3.65,9.08,8.28,9.08 c4.59,0,8.28-3.92,8.28-9.31c0-5.26-3.7-8.91-8.28-8.91C485.83,331.4,482.18,335.22,482.18,340.52z" class="st0"/><path d="M529.33,341.99h-18.21c0.49,5.21,3.87,8.46,8.77,8.46c2.76,0,5.66-1.02,8.24-3.38v3.38 c-2.45,1.91-5.26,2.85-8.37,2.85c-7.08,0-11.67-4.9-11.67-12.34c0-7.79,5.34-12.51,11.31-12.51c5.52,0,10.02,4.1,10.02,11.93 C529.42,341.01,529.38,341.5,529.33,341.99z M526.48,339.37c-0.13-5.61-3.56-8.11-7.12-8.11c-4.05,0-7.66,3.12-8.19,8.11H526.48z" class="st0"/></g><g><path d="M759.21,382.7v25.89c-7.38-5.14-20.06-9.33-31.99-9.33c-9.47,0-14.77,3.23-14.77,8.37 c0,5.71,6.06,7.99,17.98,11.23c17.23,4.19,35.59,10.09,35.59,32.36c0,20.75-16.28,34.08-44.67,34.08c-15.15,0-28.21-3.81-37.49-9.9 v-27.99c8.89,7.24,20.83,13.14,36.16,13.14c10.6,0,16.65-3.43,16.65-9.14c0-6.48-7.57-8.56-21.2-12.38 c-16.66-4.76-32.19-11.61-32.19-30.84c0-19.42,15.71-33.7,42.79-33.7C738.38,374.52,751.06,377.57,759.21,382.7" class="st0"/><path d="M852.14,420.21c-0.19-13.7-8.71-21.7-19.87-21.7c-11.36,0-21.21,8.38-24.05,21.7H852.14z M880.17,438.49 h-71.37c3.97,15.03,17.04,22.84,32.94,22.84c11.54,0,22.71-4,32.75-10.47v24.94c-10.79,6.28-23.1,9.52-36.54,9.52 c-36.92,0-58.12-23.04-58.12-55.02c0-33.51,23.47-55.79,52.62-55.79c26.7,0,48.46,18.47,48.46,53.68 C880.92,432.01,880.74,435.44,880.17,438.49" class="st0"/><path d="M935.25,377.18h28.02v25.13h-28.02v37.88c0,13.32,8.71,18.47,20.45,18.47c2.84,0,6.05-0.38,9.47-0.95v25.51 c-4.36,0.95-9.09,1.72-16.48,1.72c-27.83,0-42.78-16.57-42.78-42.83v-39.79h-14.77v-25.13h14.96v-24.37h29.15V377.18z" class="st0"/><path d="M400.32,412.79v69.86h-30.3v-63.58c0-11.43-3.78-16.95-14.01-16.95c-9.84,0-15.33,7.23-15.33,15.8v64.73h-30.3 v-63.58c0-11.43-3.79-16.95-14.01-16.95c-10.22,0-15.14,7.99-15.14,17.13v63.4h-30.3V377.18h23.48l3.03,14.66h0.57 c5.49-9.33,14.58-17.33,29.16-17.33c14.77,0,24.05,7.05,29.35,17.9c6.82-11.04,16.85-17.9,30.1-17.9 C389.53,374.52,400.32,389.75,400.32,412.79" class="st0"/><path d="M499.12,429.92c0-16.38-10.41-27.99-24.42-27.99c-14.39,0-24.99,11.99-24.99,27.99 c0,16.18,10.61,27.98,24.99,27.98C488.71,457.9,499.12,446.29,499.12,429.92 M419.23,430.3c0-33.7,22.91-55.79,46.57-55.79 c15.72,0,27.65,8,34.46,18.85l3.03-16.19h25.56v105.47h-25.56l-3.03-16.18c-6.82,11.04-18.75,18.84-34.46,18.84 C442.14,485.32,419.23,463.23,419.23,430.3" class="st0"/></g><path d="M670.14,432.15c0-33.37-27.05-60.43-60.42-60.43c-33.38,0-60.43,27.06-60.43,60.43c0,1.15,0,3.37,0,3.37v124.19	l96.8-79.18c1.28-0.96,2.42-2.04,3.61-3.1l0.85-0.75C662.59,465.64,670.14,449.78,670.14,432.15z M609.72,401.72	c16.8,0,30.43,13.62,30.43,30.43c0,16.8-13.62,30.43-30.43,30.43c-16.81,0-30.43-13.62-30.43-30.43	C579.29,415.34,592.91,401.72,609.72,401.72z" class="st0"/></svg>