<svg xmlns="http://www.w3.org/2000/svg" xmlns:xlink="http://www.w3.org/1999/xlink" width="209" height="325" x="0" y="0" enable-background="new 0 0 792 612" version="1.1" viewBox="0 0 209 325" xml:space="preserve"><style type="text/css"/><g id="Page-1" fill="none" fill-rule="evenodd" stroke="none" stroke-width="1"><g id="Mapset_Element" fill="#FFF" fill-rule="nonzero" transform="translate(-182.000000, -137.000000)"><g id="Element" transform="translate(182.000000, 137.000000)"><path id="Shape" d="M208.75,104.81 C208.75,47.25 162.09,0.58 104.52,0.58 C46.95,0.58 0.29,47.25 0.29,104.81 C0.29,106.79 0.29,110.62 0.29,110.62 L0.29,324.85 L167.26,188.27 C169.46,186.61 171.43,184.75 173.49,182.93 L174.95,181.63 C195.72,162.58 208.75,135.22 208.75,104.81 Z M104.52,52.32 C133.5,52.32 157,75.82 157,104.81 C157,133.79 133.5,157.29 104.52,157.29 C75.53,157.29 52.03,133.79 52.03,104.81 C52.04,75.82 75.53,52.32 104.52,52.32 Z"/></g></g></g></svg>