<?xml version="1.0" encoding="utf-8"?>
<!-- Generator: Adobe Illustrator 24.1.1, SVG Export Plug-In . SVG Version: 6.00 Build 0)  -->
<svg version="1.1" id="Ebene_1" xmlns="http://www.w3.org/2000/svg" xmlns:xlink="http://www.w3.org/1999/xlink" x="0px" y="0px"
	 viewBox="0 0 210 297" style="enable-background:new 0 0 210 297;" xml:space="preserve">
<style type="text/css">
	.st0{fill:#FFFFFF;}
</style>
<g transform="matrix(1,0,0,1,-238.15,-317.05)">
	<g id="Logo">
		<g>
			<path class="st0" d="M387.4,449.1v7.6c-2.2-1.5-5.9-2.7-9.4-2.7c-2.8,0-4.3,0.9-4.3,2.5c0,1.7,1.8,2.3,5.3,3.3
				c5.1,1.2,10.5,3,10.5,9.5c0,6.1-4.8,10-13.1,10c-4.4,0-8.3-1.1-11-2.9v-8.2c2.6,2.1,6.1,3.9,10.6,3.9c3.1,0,4.9-1,4.9-2.7
				c0-1.9-2.2-2.5-6.2-3.6c-4.9-1.4-9.5-3.4-9.5-9.1c0-5.7,4.6-9.9,12.6-9.9C381.3,446.7,385,447.6,387.4,449.1"/>
			<path class="st0" d="M414.7,460.2c-0.1-4-2.6-6.4-5.8-6.4c-3.3,0-6.2,2.5-7.1,6.4H414.7z M423,465.5h-21c1.2,4.4,5,6.7,9.7,6.7
				c3.4,0,6.7-1.2,9.6-3.1v7.3c-3.2,1.8-6.8,2.8-10.7,2.8c-10.8,0-17.1-6.8-17.1-16.2c0-9.8,6.9-16.4,15.5-16.4
				c7.8,0,14.2,5.4,14.2,15.8C423.2,463.6,423.1,464.6,423,465.5"/>
			<path class="st0" d="M439.1,447.5h8.2v7.4h-8.2V466c0,3.9,2.6,5.4,6,5.4c0.8,0,1.8-0.1,2.8-0.3v7.5c-1.3,0.3-2.7,0.5-4.8,0.5
				c-8.2,0-12.6-4.9-12.6-12.6v-11.7h-4.3v-7.4h4.4v-7.2h8.6V447.5z"/>
			<path class="st0" d="M282,458v20.5h-8.9v-18.7c0-3.4-1.1-5-4.1-5c-2.9,0-4.5,2.1-4.5,4.6v19h-8.9v-18.7c0-3.4-1.1-5-4.1-5
				s-4.4,2.3-4.4,5v18.6h-8.9v-31h6.9l0.9,4.3h0.2c1.6-2.7,4.3-5.1,8.6-5.1c4.3,0,7.1,2.1,8.6,5.3c2-3.2,4.9-5.3,8.8-5.3
				C278.9,446.7,282,451.2,282,458"/>
			<path class="st0" d="M311,463c0-4.8-3.1-8.2-7.2-8.2c-4.2,0-7.3,3.5-7.3,8.2c0,4.8,3.1,8.2,7.3,8.2C308,471.2,311,467.8,311,463
				 M287.6,463.1c0-9.9,6.7-16.4,13.7-16.4c4.6,0,8.1,2.3,10.1,5.5l0.9-4.8h7.5v31h-7.5l-0.9-4.8c-2,3.2-5.5,5.5-10.1,5.5
				C294.3,479.3,287.6,472.8,287.6,463.1"/>
		</g>
		<path class="st0" d="M361.3,463.7c0-9.8-7.9-17.7-17.7-17.7c-9.8,0-17.7,7.9-17.7,17.7v37.5l28.4-23.3c0.4-0.3,0.7-0.6,1.1-0.9
			l0.2-0.2C359.1,473.5,361.3,468.8,361.3,463.7z M343.5,454.7c4.9,0,8.9,4,8.9,8.9c0,4.9-4,8.9-8.9,8.9c-4.9,0-8.9-4-8.9-8.9
			C334.6,458.7,338.6,454.7,343.5,454.7z"/>
	</g>
</g>
</svg>
