<svg xmlns="http://www.w3.org/2000/svg" xmlns:xlink="http://www.w3.org/1999/xlink" width="100%" height="100%" fill-rule="evenodd" stroke-linejoin="round" stroke-miterlimit="2" clip-rule="evenodd" version="1.1" viewBox="0 0 715 243" xml:space="preserve"><g transform="matrix(1,0,0,1,-238.15,-317.05)"><g id="Logo"><g><path fill="#fff" fill-rule="nonzero" d="M315.15,322.62L304.46,322.62L304.46,319.73L328.91,319.73L328.91,322.62L318.22,322.62L318.22,352.81L315.15,352.81L315.15,322.62Z"/><path fill="#fff" fill-rule="nonzero" d="M329.84,328.95L332.24,328.95L332.6,332.82L332.64,332.82C334.29,329.66 337.45,328.68 339.59,328.68C340.17,328.68 340.66,328.72 341.1,328.77L341.1,331.71C340.61,331.62 340.08,331.58 339.54,331.58C336.24,331.58 332.86,333.76 332.86,338.53L332.86,352.82L329.83,352.82L329.83,328.95L329.84,328.95Z"/><path fill="#fff" fill-rule="nonzero" d="M343.42,340.88C343.42,333.22 348.67,328.46 354.33,328.46C357.71,328.46 361.19,330.11 363.1,333.63L363.5,328.95L365.95,328.95L365.95,352.82L363.5,352.82L363.1,348.14C361.19,351.66 357.71,353.31 354.33,353.31C348.68,353.3 343.42,348.5 343.42,340.88ZM363.02,340.84C363.02,335.23 359.32,331.35 354.74,331.35C350.11,331.35 346.46,335.14 346.46,340.88C346.46,346.58 350.11,350.41 354.74,350.41C359.32,350.41 363.02,346.54 363.02,340.84Z"/><path fill="#fff" fill-rule="nonzero" d="M375.04,331.66L371.52,331.66L371.52,328.94L374.99,328.94L374.99,324.89C374.99,320.13 378.29,317.05 382.69,317.05C383.94,317.05 385.32,317.32 386.43,317.72L386.43,320.7C385.58,320.34 384.03,320.03 382.87,320.03C379.75,320.03 378.02,321.68 378.02,325.42L378.02,328.94L385.15,328.94L385.15,331.66L378.07,331.66L378.07,352.81L375.04,352.81L375.04,331.66Z"/><path fill="#fff" fill-rule="nonzero" d="M389.47,320.62C389.47,319.46 390.32,318.62 391.52,318.62C392.77,318.62 393.61,319.47 393.61,320.62C393.61,321.82 392.76,322.67 391.52,322.67C390.31,322.67 389.47,321.82 389.47,320.62ZM390,328.95L393.03,328.95L393.03,352.82L390,352.82L390,328.95Z"/><path fill="#fff" fill-rule="nonzero" d="M431.33,336.83L431.33,352.82L428.3,352.82L428.3,337.19C428.3,333.49 426.79,331.45 423.27,331.45C419.8,331.45 417.75,334.3 417.75,337.33L417.75,352.83L414.72,352.83L414.72,337.2C414.72,333.5 413.21,331.46 409.73,331.46C406.12,331.46 404.21,334.44 404.21,337.56L404.21,352.83L401.18,352.83L401.18,328.96L403.5,328.96L403.9,332.57L403.99,332.57C405.15,330.21 407.42,328.47 410.31,328.47C413.74,328.47 415.83,329.98 416.95,332.7C418.29,330.16 420.56,328.47 423.81,328.47C429.01,328.46 431.33,331.93 431.33,336.83Z"/><path fill="#fff" fill-rule="nonzero" d="M437.47,340.88C437.47,333.22 442.72,328.46 448.38,328.46C451.76,328.46 455.24,330.11 457.15,333.63L457.55,328.95L460,328.95L460,352.82L457.55,352.82L457.15,348.14C455.23,351.66 451.76,353.31 448.38,353.31C442.72,353.3 437.47,348.5 437.47,340.88ZM457.06,340.84C457.06,335.23 453.36,331.35 448.78,331.35C444.15,331.35 440.5,335.14 440.5,340.88C440.5,346.58 444.15,350.41 448.78,350.41C453.37,350.41 457.06,346.54 457.06,340.84Z"/><path fill="#fff" fill-rule="nonzero" d="M486.05,333.31L486.45,328.95L488.85,328.95L488.85,351.26C488.85,358.92 483.37,362.66 477.72,362.66C474.51,362.66 471.31,361.5 468.86,359.63L468.86,356.07C471.35,358.39 474.38,359.68 477.72,359.68C482,359.68 485.83,356.65 485.83,351.89L485.83,347.75C483.96,350.78 480.66,352.47 477.28,352.47C471.62,352.47 466.37,347.66 466.37,340.49C466.37,333.32 471.62,328.51 477.28,328.51C480.66,328.5 484.14,330.06 486.05,333.31ZM469.4,340.52C469.4,345.73 473.05,349.6 477.68,349.6C482.27,349.6 485.96,345.68 485.96,340.29C485.96,335.03 482.26,331.38 477.68,331.38C473.05,331.4 469.4,335.22 469.4,340.52Z"/><path fill="#fff" fill-rule="nonzero" d="M516.55,341.99L498.34,341.99C498.83,347.2 502.21,350.45 507.11,350.45C509.87,350.45 512.77,349.43 515.35,347.07L515.35,350.45C512.9,352.36 510.09,353.3 506.98,353.3C499.9,353.3 495.31,348.4 495.31,340.96C495.31,333.17 500.65,328.45 506.62,328.45C512.14,328.45 516.64,332.55 516.64,340.38C516.64,341.01 516.6,341.5 516.55,341.99ZM513.7,339.37C513.57,333.76 510.14,331.26 506.58,331.26C502.53,331.26 498.92,334.38 498.39,339.37L513.7,339.37Z"/></g><g><path fill="#fff" fill-rule="nonzero" d="M746.43,382.7L746.43,408.59C739.05,403.45 726.37,399.26 714.44,399.26C704.97,399.26 699.67,402.49 699.67,407.63C699.67,413.34 705.73,415.62 717.65,418.86C734.88,423.05 753.24,428.95 753.24,451.22C753.24,471.97 736.96,485.3 708.57,485.3C693.42,485.3 680.36,481.49 671.08,475.4L671.08,447.41C679.97,454.65 691.91,460.55 707.24,460.55C717.84,460.55 723.89,457.12 723.89,451.41C723.89,444.93 716.32,442.85 702.69,439.03C686.03,434.27 670.5,427.42 670.5,408.19C670.5,388.77 686.21,374.49 713.29,374.49C725.61,374.52 738.29,377.57 746.43,382.7"/><path fill="#fff" fill-rule="nonzero" d="M839.37,420.21C839.18,406.51 830.66,398.51 819.5,398.51C808.14,398.51 798.29,406.89 795.45,420.21L839.37,420.21ZM867.39,438.49L796.02,438.49C799.99,453.52 813.06,461.33 828.96,461.33C840.5,461.33 851.67,457.33 861.71,450.86L861.71,475.8C850.92,482.08 838.61,485.32 825.17,485.32C788.25,485.32 767.05,462.28 767.05,430.3C767.05,396.79 790.52,374.51 819.67,374.51C846.37,374.51 868.13,392.98 868.13,428.19C868.14,432.01 867.96,435.44 867.39,438.49"/><path fill="#fff" fill-rule="nonzero" d="M922.47,377.18L950.49,377.18L950.49,402.31L922.47,402.31L922.47,440.19C922.47,453.51 931.18,458.66 942.92,458.66C945.76,458.66 948.97,458.28 952.39,457.71L952.39,483.22C948.03,484.17 943.3,484.94 935.91,484.94C908.08,484.94 893.13,468.37 893.13,442.11L893.13,402.32L878.36,402.32L878.36,377.19L893.32,377.19L893.32,352.82L922.47,352.82L922.47,377.18Z"/><path fill="#fff" fill-rule="nonzero" d="M387.54,412.79L387.54,482.65L357.24,482.65L357.24,419.07C357.24,407.64 353.46,402.12 343.23,402.12C333.39,402.12 327.9,409.35 327.9,417.92L327.9,482.65L297.6,482.65L297.6,419.07C297.6,407.64 293.81,402.12 283.59,402.12C273.37,402.12 268.45,410.11 268.45,419.25L268.45,482.65L238.15,482.65L238.15,377.18L261.63,377.18L264.66,391.84L265.23,391.84C270.72,382.51 279.81,374.51 294.39,374.51C309.16,374.51 318.44,381.56 323.74,392.41C330.56,381.37 340.59,374.51 353.84,374.51C376.75,374.52 387.54,389.75 387.54,412.79"/><path fill="#fff" fill-rule="nonzero" d="M486.34,429.92C486.34,413.54 475.93,401.93 461.92,401.93C447.53,401.93 436.93,413.92 436.93,429.92C436.93,446.1 447.54,457.9 461.92,457.9C475.93,457.9 486.34,446.29 486.34,429.92M406.45,430.3C406.45,396.6 429.36,374.51 453.02,374.51C468.74,374.51 480.67,382.51 487.48,393.36L490.51,377.17L516.07,377.17L516.07,482.64L490.51,482.64L487.48,466.46C480.66,477.5 468.73,485.3 453.02,485.3C429.36,485.32 406.45,463.23 406.45,430.3"/></g><path fill="#fff" fill-rule="nonzero" d="M657.36,432.15C657.36,398.78 630.31,371.72 596.94,371.72C563.56,371.72 536.51,398.78 536.51,432.15L536.51,559.71L633.31,480.53C634.59,479.57 635.73,478.49 636.92,477.43L637.77,476.68C649.81,465.64 657.36,449.78 657.36,432.15ZM596.94,401.72C613.74,401.72 627.37,415.34 627.37,432.15C627.37,448.95 613.75,462.58 596.94,462.58C580.13,462.58 566.51,448.96 566.51,432.15C566.51,415.34 580.13,401.72 596.94,401.72Z"/></g></g></svg>